<svg width="228" height="349" viewBox="0 0 228 349" fill="none" xmlns="http://www.w3.org/2000/svg">
<path d="M227.5 330V47.4402C227.5 37.499 219.441 29.4402 209.5 29.4402H152.941C150.193 29.4402 147.219 28.9337 145.803 26.5777C141.131 18.805 144.101 1 130.731 1H88.1553H66.659C59.8739 1 53.5935 4.87442 52.4786 11.5673C51.1895 19.3061 50.8824 26.2736 42.5741 29.4402C34.8324 32.3907 35.0983 30.4628 15.8954 33.2768C7.26265 34.5419 1.0306 42.1157 1.07261 50.8406L2.41707 330.087C2.46477 339.994 10.5096 348 20.4169 348H209.5C219.441 348 227.5 339.941 227.5 330Z" fill="#251F1F" stroke="white"/>
</svg>
