<svg width="227" height="347" viewBox="0 0 227 347" fill="none" xmlns="http://www.w3.org/2000/svg">
<path d="M227 329V46.4402C227 36.499 218.941 28.4402 209 28.4402H152.259C149.516 28.4402 146.548 27.9372 145.13 25.5888C140.438 17.8219 143.423 0 130.018 0H87.3477H65.7685C58.9892 0 52.7115 3.86772 51.5944 10.5543C50.3006 18.2983 49.9972 25.2719 41.6659 28.4402C33.9036 31.392 34.1738 29.461 14.9024 32.2806C6.26666 33.5441 0.0306834 41.1191 0.0727963 49.8467L1.4202 329.087C1.46801 338.994 9.51277 347 19.42 347H209C218.941 347 227 338.941 227 329Z" fill="white"/>
</svg>
