<svg width="228" height="319" viewBox="0 0 228 319" fill="none" xmlns="http://www.w3.org/2000/svg">
<path d="M227 298.447V43.2602C227 33.3191 218.941 25.2602 209 25.2602H152.06C149.669 25.2602 147.071 24.9431 145.637 23.0298C140.756 16.5172 143.929 1 130.445 1H87.9629H65.736C59.3767 1 53.4118 4.42695 52.2383 10.677C51.0491 17.0112 50.4939 22.6498 42.4823 25.2602C34.8252 27.7551 35.019 26.1609 16.3601 28.471C7.51827 29.5657 1.04022 37.2419 1.09459 46.1511L2.59574 292.122C2.59574 301.65 6.7574 318 15.5902 318H208.008C213.843 318 211.969 318 215.499 315.98C222.041 312.236 227 305.985 227 298.447Z" stroke="white"/>
</svg>
