<svg width="228" height="555" viewBox="0 0 228 523" fill="none" xmlns="http://www.w3.org/2000/svg">
<path d="M225.446 502.68L226.941 41.5584C226.974 31.5945 218.905 23.5 208.942 23.5H151.815C149.583 23.5 147.162 23.2516 145.727 21.541C140.717 15.5675 144.011 1 130.445 1H87.9629H65.339C59.1951 1 53.3928 4.20793 52.1865 10.2323C51.0312 16.0019 50.3767 21.1144 42.4823 23.5C34.8384 25.8099 35.0183 24.3405 16.457 26.4667C7.5717 27.4846 1 35.135 1 44.0784V498C1 506.837 5.16165 522 13.9944 522H206.412C212.031 522 210.501 522 213.533 520.327C220.251 516.619 225.421 510.353 225.446 502.68Z" stroke="white"/>
</svg>
