<svg width="228" height="296" viewBox="0 0 228 296" fill="none" xmlns="http://www.w3.org/2000/svg">
<path d="M227 275.635V41.5C227 31.5589 218.941 23.5 209 23.5H151.815C149.583 23.5 147.162 23.2516 145.727 21.541C140.717 15.5675 144.011 1 130.445 1H87.9629H65.339C59.1951 1 53.3928 4.20793 52.1865 10.2323C51.0312 16.0019 50.3767 21.1144 42.4823 23.5C34.8523 25.8057 35.0177 24.3458 16.5575 26.4552C7.62718 27.4757 1.04405 35.1937 1.10319 44.1819L2.59574 271C2.59574 279.837 6.7574 295 15.5902 295H208.008C213.604 295 212.11 295 215.091 293.348C221.821 289.617 227 283.33 227 275.635Z" stroke="white"/>
</svg>
