<svg width="228" height="254" viewBox="0 0 228 254" fill="none" xmlns="http://www.w3.org/2000/svg">
<path d="M227 233.635V41.5C227 31.5589 218.941 23.5 209 23.5H151.815C149.583 23.5 147.162 23.2516 145.727 21.541C140.717 15.5675 144.011 1 130.445 1H87.9629H65.339C59.1951 1 53.3928 4.20793 52.1865 10.2323C51.0312 16.0019 50.3767 21.1144 42.4823 23.5C34.8552 25.8048 35.0176 24.3469 16.5785 26.4528C7.63881 27.4738 1.05337 35.2061 1.12498 44.2036L2.59574 229C2.59574 237.837 6.7574 253 15.5902 253H208.008C213.604 253 212.11 253 215.091 251.348C221.821 247.617 227 241.33 227 233.635Z" stroke="white"/>
</svg>
